<?xml version="1.0" standalone="no"?>
<!DOCTYPE svg PUBLIC "-//W3C//DTD SVG 20010904//EN"
 "http://www.w3.org/TR/2001/REC-SVG-20010904/DTD/svg10.dtd">
<svg version="1.0" xmlns="http://www.w3.org/2000/svg"
 width="226.000000pt" height="258.000000pt" viewBox="0 0 226.000000 258.000000"
 preserveAspectRatio="xMidYMid meet">

<g transform="translate(0.000000,258.000000) scale(0.100000,-0.100000)"
fill="#000000" stroke="none">
<path d="M1075 2534 c-74 -46 -135 -74 -196 -90 -48 -12 -76 -28 -131 -75
-106 -88 -210 -118 -308 -88 l-35 10 -192 -198 c-106 -109 -193 -201 -193
-204 0 -4 32 -26 72 -49 86 -52 153 -116 178 -173 19 -40 20 -71 19 -582 0
-297 -3 -533 -6 -525 -12 31 -45 70 -59 70 -9 0 -51 -33 -95 -72 -86 -79 -94
-99 -59 -148 16 -22 19 -37 14 -73 -4 -28 -2 -47 5 -51 6 -4 11 -18 11 -31 0
-12 6 -25 14 -28 17 -7 36 11 36 33 0 9 6 25 14 35 13 18 15 16 41 -26 71
-111 214 -212 346 -244 87 -20 183 -20 204 1 22 22 14 38 -21 45 -16 4 -21 7
-11 8 10 0 50 -6 90 -14 232 -47 389 -46 671 5 32 6 61 8 64 5 3 -3 -5 -5 -17
-5 -26 0 -38 -25 -21 -45 29 -35 226 -7 334 47 66 33 149 107 203 180 19 26
39 48 43 48 5 0 12 -16 16 -36 4 -19 13 -38 20 -41 19 -7 44 15 38 32 -3 8 1
24 9 35 11 17 13 30 5 56 -7 28 -6 40 10 62 40 58 39 60 -50 144 -55 52 -90
77 -103 76 -11 -2 -30 -21 -42 -43 l-23 -40 0 531 c0 376 3 541 12 565 27 79
104 156 216 214 l52 27 -109 117 c-60 64 -149 155 -198 203 -88 87 -89 88
-123 78 -100 -29 -203 1 -309 90 -51 44 -84 63 -118 70 -59 14 -118 39 -193
85 -32 19 -64 35 -71 35 -8 0 -32 -12 -54 -26z m90 -5 c54 -37 185 -97 227
-104 29 -5 59 -23 104 -61 75 -63 104 -79 181 -99 46 -12 69 -13 118 -4 l60
11 186 -193 187 -194 -29 -12 c-52 -22 -146 -92 -178 -132 -69 -87 -66 -56
-66 -676 l0 -560 -27 -46 c-53 -90 -143 -151 -279 -189 -86 -24 -99 -24 -99
-7 0 8 24 18 61 26 132 27 227 86 275 173 l29 53 3 823 2 822 -109 0 -110 0
-3 38 -3 37 -137 3 -138 3 0 34 c0 43 -23 57 -132 79 -137 28 -326 18 -407
-22 -31 -14 -36 -23 -39 -54 l-3 -38 -134 0 -135 0 -6 -25 c-3 -14 -4 -32 -1
-40 5 -12 -12 -15 -106 -17 l-112 -3 0 -815 0 -815 23 -47 c46 -92 156 -167
283 -191 35 -7 59 -17 59 -24 0 -17 -9 -16 -82 2 -132 35 -233 97 -286 178
l-27 41 -5 570 c-5 562 -5 572 -27 619 -28 59 -101 131 -181 177 -34 19 -61
38 -59 42 1 4 82 91 181 193 172 180 180 186 210 179 109 -24 219 8 323 95 52
43 81 61 113 66 47 8 210 86 230 110 17 20 29 19 65 -6z m175 -205 c54 -19 55
-20 58 -61 l3 -43 140 0 139 0 0 -40 0 -40 110 0 110 0 -2 -167 c-3 -160 -4
-168 -23 -168 -18 0 -20 8 -23 73 l-3 72 -119 0 -120 0 0 25 0 25 -480 0 -480
0 0 -25 0 -25 -120 0 -120 0 0 -69 c0 -72 -6 -86 -34 -75 -14 5 -16 29 -16
170 l0 164 110 0 110 0 0 40 0 40 140 0 140 0 0 44 c0 48 8 54 95 75 68 17
321 7 385 -15z m120 -348 c0 -10 -92 -242 -99 -249 -5 -5 -43 -1 -84 7 -97 20
-168 20 -265 0 -120 -26 -107 -35 -163 110 -27 71 -49 131 -49 132 0 2 149 4
330 4 182 0 330 -2 330 -4z m-922 -366 c56 -41 101 -78 102 -82 0 -4 -16 -29
-36 -55 -47 -61 -77 -122 -105 -213 -35 -111 -33 -283 4 -395 15 -44 31 -87
36 -95 10 -14 -2 -24 -141 -109 l-38 -23 0 552 0 552 38 -29 c21 -15 84 -62
140 -103z m1362 -425 l0 -545 -77 48 c-45 28 -77 54 -76 63 1 8 17 55 35 104
29 82 32 101 32 210 1 99 -3 133 -23 195 -29 93 -57 150 -110 220 -28 37 -38
57 -30 65 9 10 241 183 247 184 1 1 2 -244 2 -544z m-762 423 l-3 -43 -40 3
c-22 2 -42 5 -44 7 -2 2 7 20 19 39 15 26 29 36 46 36 23 0 25 -3 22 -42z m79
2 l21 -40 -41 0 -42 0 2 37 c1 21 2 39 2 41 1 1 9 2 19 2 10 0 26 -17 39 -40z
m-89 -66 c13 -4 17 -89 4 -97 -10 -7 -115 12 -125 23 -5 4 1 26 12 48 20 39
23 41 58 36 21 -3 44 -7 51 -10z m125 -8 c9 -24 -26 -85 -52 -93 -16 -4 -26
-2 -29 5 -2 7 -7 10 -12 7 -5 -3 -7 3 -5 12 2 10 4 33 4 51 1 31 2 32 45 32
28 0 46 -5 49 -14z m-165 -105 l47 -6 3 -85 c3 -77 1 -87 -19 -103 -27 -21
-31 -18 -57 53 -11 30 -30 79 -41 108 l-21 53 21 -6 c11 -4 42 -10 67 -14z
m227 -43 c15 -51 8 -82 -12 -56 -14 18 -25 108 -13 108 5 0 16 -23 25 -52z
m-286 -55 c17 -45 31 -85 31 -88 0 -7 -86 54 -100 70 -11 13 18 121 30 108 4
-4 22 -45 39 -90z m211 83 c0 -37 -11 -44 -35 -22 l-24 21 22 7 c34 10 37 9
37 -6z m148 0 c-10 -7 -14 -17 -10 -21 4 -5 1 -5 -7 0 -12 7 -11 10 4 22 24
17 36 17 13 -1z m-208 -112 c0 -17 -6 -36 -13 -42 -9 -8 -12 3 -13 50 -1 53 1
58 13 42 7 -10 13 -32 13 -50z m158 -75 c-16 -10 -16 -12 -10 41 l5 45 9 -39
c6 -29 5 -42 -4 -47z m-321 18 c48 -36 51 -41 46 -72 -4 -23 0 -43 11 -59 15
-23 14 -25 -4 -31 -19 -6 -19 -8 -6 -33 17 -32 36 -138 36 -205 0 -41 -3 -47
-21 -47 -11 0 -35 -10 -51 -22 l-31 -21 -18 22 c-27 33 -24 58 17 153 20 45
40 94 45 107 l9 23 -33 -20 c-19 -10 -45 -27 -59 -36 l-26 -17 -7 58 c-3 32
-2 96 4 143 6 46 11 90 11 98 0 16 7 12 77 -41z m343 -172 c0 -52 -2 -95 -4
-95 -3 0 -32 16 -66 36 -38 23 -59 42 -56 50 3 7 0 16 -5 20 -12 7 97 84 119
84 9 0 12 -26 12 -95z m-152 -12 c-2 -14 -15 -19 -57 -21 -30 -2 -58 1 -64 7
-19 19 5 31 64 31 52 0 60 -2 57 -17z m-612 -55 c18 -20 18 -21 1 -15 -10 4
-27 7 -38 7 -17 0 -18 2 -7 15 17 19 22 19 44 -7z m677 -96 c44 -110 46 -119
35 -155 -11 -36 -14 -38 -41 -33 -16 3 -39 6 -51 6 -21 0 -21 2 -15 142 4 79
7 146 8 151 4 24 21 -7 64 -111z m-86 86 c-3 -13 -9 -150 -13 -306 -4 -155
-11 -285 -15 -288 -13 -8 -17 24 -34 307 -9 146 -18 275 -22 287 -5 20 -2 22
42 22 44 0 47 -2 42 -22z m572 -92 c-8 -87 -25 -146 -42 -146 -21 0 -38 16
-38 36 -1 55 21 178 36 201 18 27 18 27 35 6 13 -17 15 -33 9 -97z m-777 39
c-27 -70 -36 -72 -45 -13 -5 33 -2 39 26 57 18 12 35 21 39 21 3 0 -5 -29 -20
-65z m366 6 c2 -6 -2 -36 -8 -67 l-12 -56 -34 83 c-19 46 -34 87 -34 92 0 10
84 -39 88 -52z m-618 9 c0 -16 -7 -20 -32 -20 l-33 0 25 20 c32 25 40 25 40 0z
m907 -37 c7 -24 8 -57 4 -110 -1 -12 -65 19 -76 37 -11 18 34 100 56 100 4 0
11 -12 16 -27z m-117 -28 c0 -8 -4 -15 -9 -15 -13 0 -22 16 -14 24 11 11 23 6
23 -9z m-15 -63 c-4 -15 -22 -60 -41 -101 -33 -72 -34 -73 -56 -59 -33 22 -68
115 -59 158 4 21 13 35 21 35 21 0 43 -72 36 -117 -3 -20 -2 -40 4 -43 5 -3
10 3 10 15 0 12 4 19 8 16 4 -2 7 8 6 22 0 15 3 34 7 42 4 8 13 30 19 47 11
28 15 31 32 22 15 -8 18 -17 13 -37z m21 -46 c-4 -50 8 -80 23 -57 5 8 8 30 5
47 -2 18 1 36 6 39 5 3 41 -13 80 -36 l70 -41 -18 -31 c-9 -16 -42 -57 -74
-90 l-56 -60 -54 44 c-29 24 -55 45 -57 46 -4 2 72 182 77 183 1 0 1 -20 -2
-44z m-426 -22 c6 -14 10 -27 10 -29 0 -4 -94 -25 -110 -25 -25 0 -6 31 33 54
52 32 55 32 67 0z m248 -63 c-18 -6 -30 16 -22 40 7 24 7 24 20 -6 8 -19 9
-31 2 -34z m-371 12 c3 -7 -17 -21 -43 -32 -58 -26 -56 -26 -42 4 16 35 76 55
85 28z m135 -58 c3 -51 1 -55 -19 -55 -12 0 -28 -2 -36 -5 -10 -4 -19 8 -32
40 -19 50 -15 61 25 68 58 10 58 10 62 -48z m149 9 c6 -7 6 -21 -1 -38 -7 -20
-16 -26 -40 -26 -30 0 -30 0 -30 56 l0 55 31 -18 c17 -10 35 -23 40 -29z m26
32 c1 -1 -1 -7 -5 -13 -5 -8 -15 -6 -32 8 l-25 20 30 -7 c17 -4 31 -7 32 -8z
m-417 -16 c0 -5 -2 -10 -4 -10 -3 0 -8 5 -11 10 -3 6 -1 10 4 10 6 0 11 -4 11
-10z m474 0 c14 -5 32 -22 40 -37 12 -24 12 -32 0 -55 -14 -26 -14 -26 -61
-12 -25 8 -48 15 -49 17 -5 5 31 97 38 97 4 0 18 -4 32 -10z m-340 -41 c9 -23
14 -44 11 -48 -4 -3 -24 -11 -45 -17 -42 -12 -52 -7 -78 41 -9 18 -6 23 31 42
23 12 47 22 53 23 7 0 19 -19 28 -41z m-159 14 c0 -7 -26 -30 -57 -52 l-58
-40 -31 26 -31 26 74 28 c76 29 103 32 103 12z m646 -59 c27 -20 49 -39 49
-44 0 -11 -46 -40 -65 -40 -18 0 -59 86 -51 107 8 19 13 17 67 -23z m-1235
-11 c68 -167 121 -231 237 -288 40 -19 105 -42 145 -52 l73 -17 -5 -36 c-21
-137 -21 -129 13 -136 38 -8 40 -21 5 -30 -54 -14 -193 14 -279 55 -127 62
-249 196 -316 346 -14 31 -26 45 -39 45 -11 0 -20 -6 -21 -12 0 -9 -2 -9 -6 1
-6 14 143 160 165 161 7 0 20 -17 28 -37z m644 -14 c7 -12 -1 -20 -35 -37
l-45 -22 20 51 c11 27 20 53 20 57 1 8 26 -24 40 -49z m1221 -20 c43 -40 79
-75 79 -79 0 -3 -10 -6 -22 -6 -17 1 -30 -13 -56 -64 -76 -144 -185 -266 -281
-315 -88 -44 -236 -74 -300 -60 -38 8 -40 23 -3 27 l27 3 -3 87 -3 87 28 6
c209 46 315 121 383 268 20 45 40 90 43 100 4 9 11 17 18 17 6 0 46 -32 90
-71z m-1295 26 c-28 -65 -28 -66 -56 -45 -14 10 -23 20 -20 23 9 8 85 57 87
57 2 0 -3 -16 -11 -35z m294 -40 c0 -56 -19 -60 -43 -10 -23 49 -22 55 13 55
29 0 30 -2 30 -45z m99 3 c-29 -58 -29 -58 -29 -5 0 44 2 47 25 47 l25 0 -21
-42z m201 16 c0 -16 -16 -19 -25 -4 -8 13 4 32 16 25 5 -4 9 -13 9 -21z m-367
-19 c23 -48 22 -50 -18 -62 -34 -11 -36 -10 -65 30 l-31 42 38 12 c56 17 58
16 76 -22z m260 24 c20 -5 37 -13 37 -18 0 -4 -15 -24 -32 -45 -32 -35 -34
-36 -69 -25 l-37 12 22 43 c23 48 24 49 79 33z m127 -65 c0 -15 -98 -57 -117
-50 -11 5 -8 15 18 50 l31 45 34 -17 c19 -8 34 -21 34 -28z m-486 1 c26 -33
27 -55 4 -55 -6 0 -37 12 -70 27 l-60 27 34 17 c48 26 62 23 92 -16z m-65 -50
c62 -26 266 -69 282 -59 4 2 43 10 86 18 43 7 105 25 139 38 l60 25 27 -66
c15 -36 27 -69 27 -72 0 -4 -53 -17 -117 -30 -166 -32 -372 -32 -535 0 l-117
23 15 37 c9 20 23 55 32 79 9 23 21 40 27 38 5 -3 39 -17 74 -31z m-769 -111
c0 -8 -6 -14 -14 -14 -9 0 -12 7 -9 20 6 22 23 18 23 -6z m2040 0 c0 -8 -5
-12 -10 -9 -6 4 -8 11 -5 16 9 14 15 11 15 -7z m-1290 -55 c151 -31 342 -31
518 0 73 13 135 21 138 18 8 -8 27 -187 22 -193 -3 -2 -47 -14 -99 -26 -82
-20 -122 -22 -314 -22 -189 -1 -234 3 -319 21 -54 12 -99 23 -101 25 -2 2 2
47 8 101 8 78 13 97 26 97 9 0 63 -10 121 -21z"/>
<path d="M1100 2300 c-13 -9 -13 -12 3 -21 9 -5 17 -17 17 -24 0 -20 -29 -19
-36 0 -11 28 -24 15 -24 -25 0 -40 13 -53 24 -25 7 19 36 20 36 0 0 -7 -8 -18
-17 -24 -23 -13 -10 -24 27 -24 37 0 50 11 27 24 -9 6 -17 17 -17 24 0 20 29
19 36 0 11 -28 24 -15 24 25 0 40 -13 53 -24 25 -7 -19 -36 -20 -36 0 0 7 8
19 18 24 15 9 15 12 2 21 -8 5 -22 10 -30 10 -8 0 -22 -5 -30 -10z"/>
<path d="M426 2103 c-5 -12 0 -23 13 -35 24 -19 27 -30 7 -26 -8 2 -15 -1 -15
-7 -1 -5 11 -10 26 -10 37 0 43 32 12 57 -15 11 -18 18 -9 16 9 -2 17 2 18 7
5 19 -45 17 -52 -2z"/>
<path d="M521 2083 c-14 -48 -14 -63 -1 -63 6 0 10 5 10 10 0 6 7 10 15 10 8
0 15 -4 15 -10 0 -5 5 -10 10 -10 13 0 13 15 -1 63 -5 20 -16 37 -24 37 -8 0
-19 -17 -24 -37z"/>
<path d="M600 2070 l0 -50 35 0 c19 0 35 5 35 10 0 6 -9 10 -20 10 -17 0 -20
7 -20 40 0 29 -4 40 -15 40 -11 0 -15 -12 -15 -50z"/>
<path d="M690 2070 l0 -50 35 0 c19 0 35 5 35 10 0 6 -9 10 -20 10 -22 0 -27
15 -7 24 10 5 10 7 0 12 -20 9 -15 24 7 24 11 0 20 5 20 10 0 6 -16 10 -35 10
l-35 0 0 -50z"/>
<path d="M783 2103 c-4 -10 2 -23 15 -34 25 -20 28 -31 8 -27 -8 2 -15 -1 -15
-7 -1 -5 11 -10 27 -10 35 0 45 40 13 50 -12 3 -21 11 -21 17 0 5 7 8 15 4 9
-3 15 0 15 9 0 21 -49 19 -57 -2z"/>
<path d="M885 2070 c0 -43 3 -50 20 -50 17 0 20 7 20 50 0 43 -3 50 -20 50
-17 0 -20 -7 -20 -50z"/>
<path d="M971 2083 c-14 -48 -14 -63 -1 -63 6 0 10 5 10 10 0 14 28 12 33 -2
2 -7 8 -10 12 -6 12 11 -16 98 -31 98 -7 0 -18 -17 -23 -37z"/>
<path d="M1050 2070 c0 -48 19 -74 21 -27 l0 22 16 -22 c24 -35 33 -28 33 27
0 48 -19 74 -21 28 l0 -23 -16 23 c-24 34 -33 27 -33 -28z"/>
<path d="M1214 2107 c-11 -30 0 -82 19 -85 25 -5 51 18 37 32 -8 8 -13 7 -20
-4 -8 -12 -10 -12 -16 3 -9 26 2 48 22 40 12 -4 15 -2 12 8 -6 19 -47 24 -54
6z"/>
<path d="M1312 2108 c-30 -30 -4 -94 35 -86 14 3 18 13 18 48 0 37 -3 45 -20
48 -11 1 -26 -3 -33 -10z m29 -55 c-9 -15 -10 -12 -10 17 0 29 1 32 10 18 7
-12 7 -24 0 -35z"/>
<path d="M1400 2070 c0 -49 1 -50 29 -50 17 0 33 5 36 10 4 6 -5 10 -19 10
-24 0 -26 4 -26 40 0 22 -4 40 -10 40 -5 0 -10 -22 -10 -50z"/>
<path d="M1490 2070 l0 -50 35 0 c19 0 35 5 35 10 0 6 -9 10 -20 10 -17 0 -20
7 -20 40 0 29 -4 40 -15 40 -11 0 -15 -12 -15 -50z"/>
<path d="M1590 2070 l0 -50 35 0 c19 0 35 5 35 10 0 6 -11 10 -25 10 -14 0
-25 5 -25 10 0 6 7 10 15 10 8 0 15 5 15 10 0 6 -7 10 -15 10 -8 0 -15 5 -15
10 0 6 9 10 20 10 11 0 20 5 20 10 0 6 -13 10 -30 10 -29 0 -30 -1 -30 -50z"/>
<path d="M1687 2114 c-9 -9 -9 -57 -1 -78 4 -10 18 -16 35 -16 24 0 29 4 29
25 0 29 -26 35 -33 8 -3 -10 -5 -4 -6 14 -1 27 2 30 20 26 16 -4 20 -2 17 8
-5 15 -49 24 -61 13z"/>
<path d="M1780 2070 c0 -49 1 -50 29 -50 17 0 33 5 36 10 4 6 -5 10 -19 10
-14 0 -26 5 -26 10 0 6 7 10 15 10 8 0 15 5 15 10 0 6 -7 10 -15 10 -8 0 -15
5 -15 10 0 6 9 10 20 10 11 0 20 5 20 10 0 6 -13 10 -30 10 -29 0 -30 -1 -30
-50z"/>
<path d="M200 485 c0 -9 -11 -27 -24 -40 -19 -19 -22 -27 -12 -40 10 -13 14
-11 30 20 21 39 36 45 36 14 0 -11 5 -17 10 -14 20 12 9 -27 -14 -50 l-23 -23
38 -38 c31 -30 41 -35 53 -25 16 14 31 -1 23 -23 -3 -7 8 -23 23 -35 34 -25
41 -26 34 -7 -3 8 -1 17 5 21 7 4 11 -4 11 -20 0 -46 23 -22 24 25 1 52 -14
61 -34 19 -22 -44 -36 -33 -32 25 l4 49 -36 -22 c-33 -21 -36 -21 -55 -4 -26
22 -26 34 -1 61 l21 22 -41 51 c-23 29 -40 44 -40 34z"/>
<path d="M200 414 c0 -8 5 -12 10 -9 6 3 10 10 10 16 0 5 -4 9 -10 9 -5 0 -10
-7 -10 -16z"/>
<path d="M439 240 c-15 -12 -19 -19 -10 -20 11 0 10 -4 -3 -19 -15 -16 -15
-19 -1 -24 8 -4 15 -3 15 2 0 4 11 20 24 34 19 21 21 28 11 37 -9 7 -19 5 -36
-10z"/>
<path d="M500 220 c0 -7 -9 -25 -20 -40 -17 -24 -18 -29 -4 -34 8 -3 13 -2 10
3 -3 4 1 16 8 26 12 16 12 14 8 -14 -4 -32 -4 -33 18 -21 13 7 19 15 14 19 -5
3 -9 19 -9 35 0 16 -6 31 -12 34 -7 2 -13 -2 -13 -8z"/>
<path d="M558 180 c-17 -14 -19 -20 -8 -20 11 0 9 -5 -7 -19 l-21 -18 33 -12
c27 -9 38 -9 54 1 12 7 21 16 21 20 0 5 4 8 10 8 6 0 6 -9 0 -24 -9 -25 -5
-36 14 -36 6 0 12 21 14 46 l3 47 -26 -17 c-14 -9 -35 -23 -48 -31 -13 -8 -26
-12 -30 -9 -6 6 20 54 36 65 5 3 2 9 -7 12 -8 3 -25 -3 -38 -13z"/>
<path d="M2034 459 c-24 -27 -8 -55 30 -51 30 4 36 -17 6 -25 -11 -3 -17 -9
-14 -14 3 -5 14 -4 25 2 14 7 19 18 17 37 -2 23 -8 27 -30 25 -31 -2 -40 23
-10 29 11 2 13 6 6 10 -6 4 -20 -2 -30 -13z"/>
<path d="M1993 409 c-9 -9 -7 -16 10 -31 l22 -18 -37 6 c-51 8 -61 -2 -32 -33
13 -14 24 -32 24 -39 0 -16 16 -19 25 -4 3 6 2 10 -2 10 -5 0 -14 9 -21 20
-12 19 -11 20 30 14 l42 -7 -21 34 c-11 19 -22 40 -24 47 -3 10 -7 10 -16 1z"/>
<path d="M1880 313 c-20 -16 -44 -33 -55 -39 -41 -23 -22 -94 25 -94 23 0 50
26 49 48 0 13 -2 12 -9 -4 -12 -31 -24 -35 -49 -18 -30 21 -25 59 7 58 15 0
21 4 18 13 -3 7 -1 13 4 13 12 0 51 -56 43 -64 -16 -16 15 -3 39 17 20 16 25
26 18 37 -8 13 -10 13 -10 -2 0 -22 -19 -33 -33 -19 -9 9 -9 14 0 19 8 5 9 13
3 22 -7 10 -10 11 -10 3 0 -7 -4 -13 -10 -13 -5 0 -10 7 -10 15 0 8 7 15 15
15 8 0 15 5 15 10 0 16 -13 12 -50 -17z"/>
<path d="M1757 234 c-4 -4 2 -19 13 -34 23 -32 25 -46 9 -55 -12 -8 -59 32
-59 51 0 7 -8 10 -19 7 -19 -5 -19 -6 5 -31 13 -15 24 -30 24 -34 0 -13 57 -9
68 5 10 12 5 28 -22 74 -7 13 -16 20 -19 17z"/>
<path d="M1627 173 c-16 -4 -16 -6 3 -33 11 -15 20 -33 20 -39 0 -14 9 -14 49
0 32 11 39 23 21 34 -5 3 -10 -1 -10 -9 0 -26 -35 -18 -53 13 -9 15 -14 31
-10 35 3 3 4 5 2 5 -2 -1 -12 -3 -22 -6z"/>
<path d="M1413 223 c-14 -3 -23 -11 -22 -21 0 -11 3 -12 6 -4 10 26 25 11 21
-23 -3 -27 0 -35 12 -35 12 0 15 9 12 40 -3 34 -2 39 12 34 9 -3 16 -1 16 5 0
11 -15 12 -57 4z"/>
<path d="M787 190 c-6 -16 -16 -30 -22 -30 -5 0 -3 -4 5 -10 11 -7 18 -2 27
18 7 15 11 19 8 10 -2 -10 0 -18 6 -18 6 0 9 -7 5 -15 -3 -10 1 -15 13 -15 18
0 18 2 2 45 -19 53 -29 56 -44 15z"/>
<path d="M860 166 c0 -33 4 -46 14 -46 9 0 13 8 9 23 -4 20 -3 20 17 -5 18
-24 29 -28 70 -28 48 0 60 9 60 45 0 22 -30 45 -58 45 -26 0 -27 -2 -24 -40 3
-24 0 -40 -6 -40 -16 0 -25 19 -26 54 -1 26 -5 32 -28 34 -27 3 -28 2 -28 -42z
m40 19 c0 -8 -4 -15 -10 -15 -5 0 -10 7 -10 15 0 8 5 15 10 15 6 0 10 -7 10
-15z m100 -16 c14 -25 6 -49 -15 -49 -11 0 -15 10 -15 35 0 39 14 46 30 14z"/>
<path d="M1325 165 c0 -35 4 -45 17 -45 29 0 48 12 48 29 -1 14 -2 14 -11 -1
-12 -22 -29 -23 -29 -3 0 8 5 15 10 15 6 0 10 8 10 18 0 14 -2 15 -10 2 -8
-13 -10 -13 -10 2 0 9 8 19 18 21 9 3 4 5 -13 6 -29 1 -30 0 -30 -44z"/>
<path d="M1049 196 c0 0 -1 -22 -2 -48 l-3 -48 33 0 c25 0 33 4 32 18 0 10 -3
12 -6 5 -7 -18 -33 -16 -33 3 0 8 5 12 10 9 6 -3 10 0 10 9 0 8 3 21 6 29 3
10 -3 16 -20 19 -14 3 -26 5 -27 4z m41 -20 c0 -3 -4 -8 -10 -11 -5 -3 -10 -1
-10 4 0 6 5 11 10 11 6 0 10 -2 10 -4z"/>
<path d="M1179 173 l0 -28 -16 23 c-24 35 -38 27 -38 -23 0 -26 4 -45 11 -45
6 0 9 13 7 33 l-4 32 21 -32 c28 -41 40 -34 40 23 0 47 -20 63 -21 17z"/>
<path d="M1227 193 c-14 -13 -6 -42 13 -48 11 -3 20 -11 20 -17 0 -6 -9 -8
-20 -5 -11 3 -20 1 -20 -3 0 -14 17 -21 33 -14 27 10 27 33 -1 60 -26 25 -26
26 -4 21 12 -3 22 -1 22 4 0 10 -33 12 -43 2z"/>
</g>
</svg>
