<svg width="20" height="20" viewBox="0 0 20 20" fill="none" xmlns="http://www.w3.org/2000/svg">
<path d="M3.9708 14.9705V10C5.47916 8.79514 6.70757 7.27676 7.57092 5.55006C8.43427 3.82336 8.91192 1.92961 8.9708 0H1.0293C0.76408 0 0.509726 0.105357 0.32219 0.292893C0.134654 0.48043 0.0292969 0.734784 0.0292969 1V15.9705H2.9708C3.23601 15.9705 3.49037 15.8651 3.6779 15.6776C3.86544 15.4901 3.9708 15.2357 3.9708 14.9705Z" fill="black" fill-opacity="0.6"/>
<path d="M14.912 17.5002V8.77624L15.4595 8.22924C15.9387 8.42558 16.4708 8.45131 16.9668 8.30211C17.4627 8.15291 17.8923 7.83784 18.1836 7.40967C18.475 6.98151 18.6103 6.46624 18.5671 5.95017C18.5238 5.4341 18.3045 4.94857 17.946 4.57488C17.5874 4.2012 17.1114 3.96205 16.5975 3.8975C16.0837 3.83295 15.5633 3.94692 15.1234 4.22031C14.6836 4.4937 14.351 4.90991 14.1815 5.39925C14.0119 5.88858 14.0156 6.42132 14.192 6.90824L8.8445 12.4552C8.75867 12.5411 8.71046 12.6576 8.71046 12.779C8.71046 12.9004 8.75867 13.0169 8.8445 13.1027L9.492 13.7527C9.57786 13.8384 9.6942 13.8865 9.8155 13.8865C9.9368 13.8865 10.0531 13.8384 10.139 13.7527L13.0815 10.6092V17.5002H0V19.0002C0 19.2655 0.105357 19.5198 0.292893 19.7073C0.48043 19.8949 0.734784 20.0002 1 20.0002H19C19.2652 20.0002 19.5196 19.8949 19.7071 19.7073C19.8946 19.5198 20 19.2655 20 19.0002V17.5002H14.912Z" fill="black" fill-opacity="0.6"/>
</svg>
